# xmcd CD database file
#
# Track frame offsets:
#	150
#	14769
#	31394
#	48867
#	64329
#	80716
#	95807
#	114504
#	130171
#	147487
#
# Disc length: 2178 seconds
#
# Revision: 3
# Processed by: cddbd v1.5.2PL0 Copyright (c) Steve Scherf et al.
# Submitted via: CDex 1.70beta2
#
DISCID=9208800a
DTITLE=Jo Dee Messina - I'm Alright
DYEAR=2003
DGENRE=Country
TTITLE0=I'm Alright
TTITLE1=Stand Beside Me
TTITLE2=Even God Must Get The Blues
TTITLE3=No Time For Tears
TTITLE4=Lesson In Leavin'
TTITLE5=Bye Bye
TTITLE6=Silver Thunderbird
TTITLE7=I Know A Heartache
TTITLE8=Because You Love me
TTITLE9=Cover Me
EXTD=YEAR: 2003
EXTT0=
EXTT1=
EXTT2=
EXTT3=
EXTT4=
EXTT5=
EXTT6=
EXTT7=
EXTT8=
EXTT9=
PLAYORDER=
